<?xml version="1.0" encoding="utf-8"?>
<!-- Generator: Adobe Illustrator 22.1.0, SVG Export Plug-In . SVG Version: 6.00 Build 0)  -->
<svg version="1.1" id="Layer_1" xmlns="http://www.w3.org/2000/svg" xmlns:xlink="http://www.w3.org/1999/xlink" x="0px" y="0px"
	 viewBox="0 0 134 41" style="enable-background:new 0 0 134 41;" xml:space="preserve">
<style type="text/css">
	.st0{enable-background:new    ;}
	.st1{fill:#FFFFFF;}
</style>
<image style="overflow:visible;enable-background:new    ;" width="134" height="41" id="Background" xlink:href="78150158.jpg" >
</image>
<g id="Sign_in" class="st0">
	<path class="st1" d="M54.5,25.3h-1.8l-0.9-2.6h-4l-0.9,2.6h-1.8l3.8-10.1h1.9L54.5,25.3z M51.3,21.4l-1.4-4c0-0.1-0.1-0.3-0.1-0.6
		h0c0,0.3-0.1,0.5-0.1,0.6l-1.4,4H51.3z"/>
	<path class="st1" d="M61.3,25.3h-1.6v-1.1h0c-0.5,0.9-1.2,1.3-2.2,1.3c-0.7,0-1.3-0.2-1.7-0.6c-0.4-0.4-0.6-0.9-0.6-1.5
		c0-1.4,0.8-2.2,2.3-2.4l2.1-0.3c0-1-0.5-1.5-1.5-1.5c-0.9,0-1.6,0.3-2.3,0.9v-1.4c0.8-0.5,1.6-0.7,2.6-0.7c1.8,0,2.7,0.9,2.7,2.7
		V25.3z M59.7,21.8L58.2,22c-0.5,0.1-0.8,0.2-1.1,0.3c-0.2,0.2-0.4,0.5-0.4,0.9c0,0.3,0.1,0.6,0.3,0.7c0.2,0.2,0.5,0.3,0.9,0.3
		c0.5,0,0.9-0.2,1.2-0.5c0.3-0.3,0.5-0.8,0.5-1.3V21.8z"/>
	<path class="st1" d="M69.7,25.3H68v-4.1c0-1.3-0.5-2-1.4-2c-0.5,0-0.9,0.2-1.2,0.6c-0.3,0.4-0.5,0.8-0.5,1.4v4.1h-1.6v-7.2h1.6v1.2
		h0c0.5-0.9,1.3-1.4,2.3-1.4c0.8,0,1.4,0.3,1.8,0.8c0.4,0.5,0.6,1.2,0.6,2.2V25.3z"/>
	<path class="st1" d="M82.4,25.3h-1.6v-3.9c0-0.8-0.1-1.3-0.3-1.6c-0.2-0.3-0.6-0.5-1.1-0.5c-0.4,0-0.8,0.2-1.1,0.6
		c-0.3,0.4-0.4,0.9-0.4,1.5v3.9h-1.6v-4.1c0-1.3-0.5-2-1.4-2c-0.4,0-0.8,0.2-1.1,0.6s-0.4,0.9-0.4,1.6v3.9h-1.6v-7.2h1.6v1.1h0
		c0.5-0.9,1.3-1.3,2.3-1.3c0.5,0,0.9,0.1,1.3,0.4c0.4,0.3,0.6,0.6,0.8,1.1c0.5-1,1.3-1.5,2.4-1.5c1.6,0,2.4,1,2.4,2.9V25.3z"/>
	<path class="st1" d="M90.5,22.2h-4.9c0,0.7,0.2,1.2,0.6,1.5s0.9,0.5,1.6,0.5c0.8,0,1.5-0.2,2.1-0.7v1.3c-0.7,0.4-1.5,0.6-2.6,0.6
		c-1.1,0-1.9-0.3-2.5-1c-0.6-0.7-0.9-1.6-0.9-2.8c0-1.1,0.3-2,1-2.7s1.5-1.1,2.5-1.1s1.7,0.3,2.3,0.9s0.8,1.5,0.8,2.6V22.2z
		 M88.9,21c0-0.6-0.1-1-0.4-1.4s-0.6-0.5-1.1-0.5c-0.5,0-0.9,0.2-1.2,0.5c-0.3,0.3-0.5,0.8-0.6,1.3H88.9z"/>
	<path class="st1" d="M93.7,25.3h-1.6V14.7h1.6V25.3z"/>
	<path class="st1" d="M102.4,25.3h-1.6v-1.2h0c-0.5,0.9-1.3,1.4-2.4,1.4c-0.9,0-1.6-0.3-2.1-1c-0.5-0.6-0.8-1.5-0.8-2.6
		c0-1.2,0.3-2.1,0.9-2.9s1.4-1.1,2.4-1.1c1,0,1.7,0.4,2.1,1.2h0v-4.5h1.6V25.3z M100.8,22v-0.9c0-0.5-0.2-0.9-0.5-1.3
		c-0.3-0.4-0.8-0.5-1.3-0.5c-0.6,0-1.1,0.2-1.4,0.7C97.2,20.4,97,21,97,21.8c0,0.7,0.2,1.3,0.5,1.7c0.3,0.4,0.8,0.6,1.4,0.6
		c0.6,0,1-0.2,1.4-0.6C100.6,23.2,100.8,22.7,100.8,22z"/>
	<path class="st1" d="M110.6,22.2h-4.9c0,0.7,0.2,1.2,0.6,1.5c0.4,0.4,0.9,0.5,1.6,0.5c0.8,0,1.5-0.2,2.1-0.7v1.3
		c-0.7,0.4-1.5,0.6-2.6,0.6c-1.1,0-1.9-0.3-2.5-1c-0.6-0.7-0.9-1.6-0.9-2.8c0-1.1,0.3-2,1-2.7c0.7-0.7,1.5-1.1,2.5-1.1
		s1.7,0.3,2.3,0.9s0.8,1.5,0.8,2.6V22.2z M109,21c0-0.6-0.1-1-0.4-1.4s-0.6-0.5-1.1-0.5c-0.5,0-0.9,0.2-1.2,0.5
		c-0.3,0.3-0.5,0.8-0.6,1.3H109z"/>
	<path class="st1" d="M118.6,25.3h-1.6v-4.1c0-1.3-0.5-2-1.4-2c-0.5,0-0.9,0.2-1.2,0.6c-0.3,0.4-0.5,0.8-0.5,1.4v4.1h-1.6v-7.2h1.6
		v1.2h0c0.5-0.9,1.3-1.4,2.3-1.4c0.8,0,1.4,0.3,1.8,0.8s0.6,1.2,0.6,2.2V25.3z"/>
</g>
</svg>
