<?xml version="1.0" encoding="utf-8"?>
<!-- Generator: Adobe Illustrator 22.1.0, SVG Export Plug-In . SVG Version: 6.00 Build 0)  -->
<svg version="1.1" id="Layer_1" xmlns="http://www.w3.org/2000/svg" xmlns:xlink="http://www.w3.org/1999/xlink" x="0px" y="0px"
	 viewBox="0 0 135 41" style="enable-background:new 0 0 135 41;" xml:space="preserve">
<style type="text/css">
	.st0{enable-background:new    ;}
	.st1{fill:#5E5E5E;}
</style>
<image style="overflow:visible;enable-background:new    ;" width="135" height="41" id="Background" xlink:href="88D690D1.jpg" >
</image>
<g id="Sign_in" class="st0">
	<path class="st1" d="M54.6,25.4h-1.9l-0.9-2.6h-4L47,25.4h-1.8l3.8-10.2h1.9L54.6,25.4z M51.4,21.5L50,17.4c0-0.1-0.1-0.3-0.1-0.6
		h0c0,0.3-0.1,0.5-0.1,0.6l-1.4,4.1H51.4z"/>
	<path class="st1" d="M61.4,25.4h-1.6v-1.1h0c-0.5,0.9-1.2,1.3-2.2,1.3c-0.7,0-1.3-0.2-1.7-0.6c-0.4-0.4-0.6-0.9-0.6-1.5
		c0-1.4,0.8-2.2,2.4-2.4l2.2-0.3c0-1-0.5-1.6-1.5-1.6c-0.9,0-1.6,0.3-2.3,0.9v-1.4c0.8-0.5,1.7-0.7,2.7-0.7c1.8,0,2.8,0.9,2.8,2.7
		V25.4z M59.8,21.9l-1.5,0.2c-0.5,0.1-0.8,0.2-1.1,0.3s-0.4,0.5-0.4,0.9c0,0.3,0.1,0.6,0.3,0.8c0.2,0.2,0.5,0.3,0.9,0.3
		c0.5,0,0.9-0.2,1.2-0.5c0.3-0.4,0.5-0.8,0.5-1.3V21.9z"/>
	<path class="st1" d="M69.9,25.4h-1.6v-4.1c0-1.4-0.5-2-1.4-2c-0.5,0-0.9,0.2-1.2,0.6c-0.3,0.4-0.5,0.9-0.5,1.4v4.1h-1.7v-7.3h1.7
		v1.2h0c0.5-0.9,1.3-1.4,2.4-1.4c0.8,0,1.4,0.3,1.8,0.8c0.4,0.5,0.6,1.3,0.6,2.2V25.4z"/>
	<path class="st1" d="M82.8,25.4h-1.6v-4c0-0.8-0.1-1.3-0.3-1.7c-0.2-0.3-0.6-0.5-1.1-0.5c-0.4,0-0.8,0.2-1.1,0.6
		c-0.3,0.4-0.5,0.9-0.5,1.5v3.9h-1.7v-4.1c0-1.4-0.5-2-1.4-2c-0.4,0-0.8,0.2-1.1,0.6c-0.3,0.4-0.4,0.9-0.4,1.6v3.9h-1.6v-7.3h1.6
		v1.1h0c0.5-0.9,1.3-1.3,2.3-1.3c0.5,0,0.9,0.1,1.3,0.4s0.6,0.6,0.8,1.1c0.5-1,1.3-1.5,2.4-1.5c1.6,0,2.4,1,2.4,3V25.4z"/>
	<path class="st1" d="M90.9,22.2h-5c0,0.7,0.2,1.2,0.6,1.6c0.4,0.4,0.9,0.5,1.6,0.5c0.8,0,1.5-0.2,2.1-0.7V25
		c-0.7,0.4-1.5,0.6-2.6,0.6c-1.1,0-1.9-0.3-2.5-1c-0.6-0.7-0.9-1.6-0.9-2.8c0-1.1,0.3-2.1,1-2.8c0.7-0.7,1.5-1.1,2.5-1.1
		c1,0,1.8,0.3,2.3,1c0.5,0.6,0.8,1.5,0.8,2.7V22.2z M89.3,21.1c0-0.6-0.1-1.1-0.4-1.4c-0.3-0.3-0.7-0.5-1.1-0.5
		c-0.5,0-0.9,0.2-1.2,0.5c-0.3,0.3-0.5,0.8-0.6,1.4H89.3z"/>
	<path class="st1" d="M94.2,25.4h-1.7V14.7h1.7V25.4z"/>
	<path class="st1" d="M102.9,25.4h-1.6v-1.2h0c-0.5,0.9-1.3,1.4-2.4,1.4c-0.9,0-1.6-0.3-2.1-1s-0.8-1.5-0.8-2.7
		c0-1.2,0.3-2.2,0.9-2.9c0.6-0.7,1.4-1.1,2.4-1.1c1,0,1.7,0.4,2.1,1.2h0v-4.5h1.6V25.4z M101.3,22.1v-1c0-0.5-0.2-1-0.5-1.3
		c-0.3-0.4-0.8-0.5-1.3-0.5c-0.6,0-1.1,0.2-1.5,0.7c-0.4,0.5-0.5,1.1-0.5,1.9c0,0.7,0.2,1.3,0.5,1.7c0.3,0.4,0.8,0.6,1.4,0.6
		c0.6,0,1-0.2,1.4-0.6C101.1,23.3,101.3,22.7,101.3,22.1z"/>
	<path class="st1" d="M111.2,22.2h-5c0,0.7,0.2,1.2,0.6,1.6c0.4,0.4,0.9,0.5,1.6,0.5c0.8,0,1.5-0.2,2.1-0.7V25
		c-0.7,0.4-1.5,0.6-2.6,0.6c-1.1,0-1.9-0.3-2.5-1c-0.6-0.7-0.9-1.6-0.9-2.8c0-1.1,0.3-2.1,1-2.8c0.7-0.7,1.5-1.1,2.5-1.1
		c1,0,1.8,0.3,2.3,1c0.5,0.6,0.8,1.5,0.8,2.7V22.2z M109.6,21.1c0-0.6-0.1-1.1-0.4-1.4c-0.3-0.3-0.7-0.5-1.1-0.5
		c-0.5,0-0.9,0.2-1.2,0.5c-0.3,0.3-0.5,0.8-0.6,1.4H109.6z"/>
	<path class="st1" d="M119.3,25.4h-1.6v-4.1c0-1.4-0.5-2-1.4-2c-0.5,0-0.9,0.2-1.2,0.6c-0.3,0.4-0.5,0.9-0.5,1.4v4.1h-1.7v-7.3h1.7
		v1.2h0c0.5-0.9,1.3-1.4,2.4-1.4c0.8,0,1.4,0.3,1.8,0.8c0.4,0.5,0.6,1.3,0.6,2.2V25.4z"/>
</g>
</svg>
